<svg fill="#fff" xmlns="http://www.w3.org/2000/svg" width="32" height="32" viewBox="0 0 32 32"><g><g><path d="M29.994,8.364A1.5,1.5,0,0,0,28.5,7H25V6A5.989,5.989,0,0,0,16,.814,5.984,5.984,0,0,0,7,6V7H3.5A1.5,1.5,0,0,0,2.006,8.364l-2,22A1.5,1.5,0,0,0,1.5,32h29a1.5,1.5,0,0,0,1.494-1.636ZM22,6V7H16V6a3,3,0,0,1,6,0ZM13,3a3.014,3.014,0,0,1,.747.106A5.962,5.962,0,0,0,13,6V7H10V6A3,3,0,0,1,13,3ZM3.143,29,4.87,10H7.13L8.857,29Zm8.727,0L10.143,10H13v1.5a1.5,1.5,0,0,0,3,0V10h6v1.5a1.5,1.5,0,0,0,3,0V10h2.13l1.727,19Z"/></g></g></svg>